<svg xmlns="http://www.w3.org/2000/svg" width="40" height="40" fill="none" viewBox="0 0 40 40"><rect width="40" height="40" fill="#ff3e79" rx="20"/><path fill="#fff" fill-rule="evenodd" d="M28 11H12c-1.1 0-1.99.9-1.99 2L10 31l4-5h14c1.1 0 2-.9 2-2V13c0-1.1-.9-2-2-2m-7 11h-6c-.55 0-1-.45-1-1s.45-1 1-1h6c.55 0 1 .45 1 1s-.45 1-1 1m4-5H15c-.55 0-1-.45-1-1s.45-1 1-1h10c.55 0 1 .45 1 1s-.45 1-1 1" clip-rule="evenodd"/><mask id="a" width="20" height="20" x="10" y="11" maskUnits="userSpaceOnUse" style="mask-type:luminance"><path fill="#fff" fill-rule="evenodd" d="M28 11H12c-1.1 0-1.99.9-1.99 2L10 31l4-5h14c1.1 0 2-.9 2-2V13c0-1.1-.9-2-2-2m-7 11h-6c-.55 0-1-.45-1-1s.45-1 1-1h6c.55 0 1 .45 1 1s-.45 1-1 1m4-5H15c-.55 0-1-.45-1-1s.45-1 1-1h10c.55 0 1 .45 1 1s-.45 1-1 1" clip-rule="evenodd"/></mask></svg>