<svg xmlns="http://www.w3.org/2000/svg" width="98" height="52" fill="none" viewBox="0 0 98 52"><path fill="#6b7b84" fill-rule="evenodd" stroke="#80949f" stroke-width=".5" d="M36.094.25a1 1 0 0 0-1 1v4.275a1 1 0 0 0 1 1h36.327c10.127 0 18.08 7.797 18.08 17.89 0 .285.232.517.518.517h5.262a.517.517 0 0 0 .517-.518C96.798 10.925 85.956.25 72.421.25zM6.63 25.37a.44.44 0 0 0-.438-.439H.688a.44.44 0 0 0-.438.439c0 13.65 10.223 24.919 23.443 25.656l42.341.038a1 1 0 0 0 1.001-1v-4.58a1 1 0 0 0-1-1H25.151C14.914 44.456 6.63 35.941 6.63 25.37Z" clip-rule="evenodd"/><path fill="#6b7b84" fill-rule="evenodd" d="M27.666 39.45c2.738 0 5.02-.532 7.273-1.627l.155-.145v-7.835l-.843 1.08c-1.622 1.772-3.801 2.748-6.266 2.748-4.592 0-9.203-2.968-9.203-8.64 0-4.286 3.18-8.841 9.041-8.841 1.17 0 4.014.276 6.424 2.836l.847 1.043V12.27l-.148-.147c-2.296-1.15-4.638-1.71-7.308-1.71-4.567 0-8.132 1.202-10.97 3.673-1.8 1.55-4.803 5.02-4.803 10.864 0 4.32 1.538 7.695 4.826 10.622 3.058 2.682 6.45 3.878 10.975 3.878" clip-rule="evenodd"/><path stroke="#80949f" stroke-width=".5" d="M27.666 39.45c2.738 0 5.02-.532 7.273-1.627l.155-.145v-7.835l-.843 1.08c-1.622 1.772-3.801 2.748-6.266 2.748-4.592 0-9.203-2.968-9.203-8.64 0-4.286 3.18-8.841 9.041-8.841 1.17 0 4.014.276 6.424 2.836l.847 1.043V12.27l-.148-.147c-2.296-1.15-4.638-1.71-7.308-1.71-4.567 0-8.132 1.202-10.97 3.673-1.8 1.55-4.803 5.02-4.803 10.864 0 4.32 1.538 7.695 4.826 10.622 3.058 2.682 6.45 3.878 10.975 3.878"/><path fill="#6b7b84" fill-rule="evenodd" d="M47.435 16.946H48.8c1.252 0 2.678.069 3.758.804.527.377 1.411 1.249 1.411 2.832 0 1.17-.517 2.22-1.37 2.874-1.096.795-2.397.75-3.443.75h-1.72zm3.066 12.53c3.231 0 5.76-.933 7.517-2.689 2.16-2.156 2.484-5.122 2.484-6.686 0-1.673-.397-4.937-3.057-7.3-2.18-1.91-4.507-2.388-7.789-2.388h-8.754V39.45h6.658v-9.975z" clip-rule="evenodd"/><path fill="#80949f" d="M47.435 16.946v-.25h-.25v.25zm5.122.804.145-.203-.004-.003zm.04 5.706.147.202.005-.004zm-5.162.75h-.25v.25h.25zm10.583 2.581-.176-.177zm-.573-13.986.166-.187h-.001zm-16.543-2.388v-.25h-.25v.25zm0 29.037h-.25v.25h.25zm6.658 0v.25h.25v-.25zm0-9.975v-.25h-.25v.25zm-.125-12.529v.25H48.8v-.5h-1.364zm1.364 0v.25c1.258 0 2.609.074 3.617.761l.14-.207.142-.206c-1.151-.785-2.653-.848-3.898-.848zm3.758.804-.145.204c.487.348 1.306 1.153 1.306 2.628h.5c0-1.692-.95-2.63-1.516-3.035zm1.411 2.832h-.25c0 1.096-.483 2.07-1.273 2.675l.152.199.152.198c.92-.704 1.47-1.828 1.47-3.072zm-1.37 2.874-.148-.203c-1.017.739-2.229.702-3.295.702v.5c1.026 0 2.417.054 3.59-.797zm-3.443.75v-.25h-1.72v.5h1.72zm-1.72 0h.25v-7.26h-.5v7.26zm3.066 5.27v.25c3.28 0 5.88-.948 7.694-2.762l-.177-.177-.177-.176c-1.698 1.697-4.157 2.614-7.34 2.614zm7.517-2.689.177.177c2.232-2.227 2.557-5.278 2.557-6.863h-.5c0 1.543-.321 4.424-2.41 6.51zm2.484-6.686h.25c0-1.701-.402-5.054-3.14-7.487l-.167.187-.166.187c2.581 2.293 2.973 5.468 2.973 7.113zm-3.057-7.3.165-.188c-2.246-1.968-4.644-2.45-7.954-2.45v.5c3.255 0 5.51.473 7.624 2.326zm-7.789-2.388v-.25h-8.754v.5h8.754zm-8.754 0h-.25V39.45h.5V10.413zm0 29.037v.25h6.658v-.5h-6.658zm6.658 0h.25v-9.975h-.5v9.975zm0-9.975v.25h2.94v-.5h-2.94z"/><path fill="#6b7b84" fill-rule="evenodd" d="M80.477 24.126c-1.448-1.282-3.469-2.026-5.762-2.797-1.634-.569-2.535-.882-3.135-1.43-.474-.402-.685-.838-.685-1.415 0-1.264.859-2.615 3.27-2.615 1.639 0 3.011.7 4.079 2.082l.423.548 3.517-4.476-.321-.32c-2.15-2.153-4.984-3.29-8.195-3.29-6.479 0-9.378 4.214-9.378 8.391 0 2.242.799 4.05 2.37 5.371 1.408 1.206 3.123 1.882 4.77 2.433l.185.062c1.462.483 2.973.983 3.876 1.791.628.577.908 1.204.908 2.033 0 1.9-1.496 3.177-3.723 3.177-1.76 0-4.079-.863-5.305-3.284l-.32-.634-4.371 4.046.257.364c1.395 1.975 4.541 5.287 9.946 5.287 5.96 0 10.123-3.832 10.123-9.317 0-3.138-1.377-5-2.53-6.007" clip-rule="evenodd"/><path stroke="#80949f" stroke-width=".5" d="M80.477 24.126c-1.448-1.282-3.469-2.026-5.762-2.797-1.634-.569-2.535-.882-3.135-1.43-.474-.402-.685-.838-.685-1.415 0-1.264.859-2.615 3.27-2.615 1.639 0 3.011.7 4.079 2.082l.423.548 3.517-4.476-.321-.32c-2.15-2.153-4.984-3.29-8.195-3.29-6.479 0-9.378 4.214-9.378 8.391 0 2.242.799 4.05 2.37 5.371 1.408 1.206 3.123 1.882 4.77 2.433l.185.062c1.462.483 2.973.983 3.876 1.791.628.577.908 1.204.908 2.033 0 1.9-1.496 3.177-3.723 3.177-1.76 0-4.079-.863-5.305-3.284l-.32-.634-4.371 4.046.257.364c1.395 1.975 4.541 5.287 9.946 5.287 5.96 0 10.123-3.832 10.123-9.317 0-3.138-1.377-5-2.53-6.007"/></svg>