<svg xmlns="http://www.w3.org/2000/svg" width="40" height="40" fill="none" viewBox="0 0 40 40"><rect width="40" height="40" fill="#ff3e79" rx="20"/><path fill="#fff" d="M27 10a1 1 0 0 1 1 1v17.5a1.5 1.5 0 0 0-1.5 1.5h-1a1.5 1.5 0 0 0-3 0h-1a1.5 1.5 0 0 0-3 0h-1a1.5 1.5 0 0 0-3 0h-1a1.5 1.5 0 0 0-1.5-1.5V11a1 1 0 0 1 1-1zm-7.146 3.88a4.318 4.318 0 0 0-4.995 4.83c.23 1.822 1.669 3.337 3.471 3.673a4.24 4.24 0 0 0 3.086-.595l2.11 2.11a.97.97 0 0 0 1.37-1.372l-2.109-2.098c.537-.853.796-1.88.613-2.992-.297-1.792-1.744-3.268-3.546-3.556m-.795 1.826a2.354 2.354 0 0 1 0 4.706 2.354 2.354 0 0 1 0-4.706"/></svg>