<svg xmlns="http://www.w3.org/2000/svg" width="316" height="24" fill="none" viewBox="0 0 316 24"><path fill="#1b1c21" d="M10.32 5.8q.24 0 .24.24v10.72q0 .24-.24.24H9.28q-.24 0-.24-.24V7.24H3.12v9.52q0 .24-.24.24H1.84q-.24 0-.24-.24V6.04q0-.24.24-.24zm8.516 5.36q0-.544-.336-.864-.32-.336-.864-.336h-2q-.543 0-.88.336-.32.32-.32.864v3.52q0 .544.32.88.337.32.88.32h2q.544 0 .864-.32.336-.336.336-.88zm1.36 3.52q0 1.2-.656 1.84-.64.64-1.904.64h-2q-1.263 0-1.92-.64-.64-.64-.64-1.84v-3.52q0-1.2.64-1.84.657-.64 1.92-.64h2q1.265 0 1.904.64.657.64.656 1.84zm3.723.16q-.24 1.2-.816 1.76t-1.664.56h-.24q-.24 0-.24-.24v-.8q0-.24.24-.24h.24q.416 0 .704-.272.305-.271.416-.768l1.2-5.76q.049-.24.4-.24h4.48q.24 0 .24.24v7.68q0 .24-.24.24h-.88q-.24 0-.24-.24v-6.64h-2.64zm12.396-5.76a.33.33 0 0 1 .128-.176.5.5 0 0 1 .272-.064h.96q.255 0 .16.24L34.715 17a12 12 0 0 1-.657 1.424 3.9 3.9 0 0 1-.687.928 2.2 2.2 0 0 1-.8.528q-.432.16-.976.16h-.32q-.24 0-.24-.24V19q0-.24.24-.24h.32q.608 0 .992-.4.4-.4.767-1.36l-3.12-7.92q-.096-.24.16-.24h.96q.177 0 .256.064.096.047.145.176l2.24 6h.08zm4.068 2.72q0 .544.32.88.336.32.88.32h2.72V9.08q0-.24.24-.24h.88q.24 0 .24.24v7.68q0 .24-.24.24h-.88q-.24 0-.24-.24v-2.48h-2.72q-1.264 0-1.92-.64-.64-.64-.64-1.84V9.08q0-.24.24-.24h.88q.24 0 .24.24zM54.75 8.84q.24 0 .24.24v7.68q0 .24-.24.24h-.88q-.24 0-.24-.24v-5.84h-.08l-3.84 5.84a.8.8 0 0 1-.16.192q-.08.048-.32.048h-.96q-.24 0-.24-.24V9.08q0-.24.24-.24h.88q.24 0 .24.24v5.84h.08l3.84-5.84a.5.5 0 0 1 .16-.176q.08-.064.32-.064zM59.186 17q-.24 0-.24-.24v-6.64h-2.48q-.24 0-.24-.24v-.8q0-.24.24-.24h6.32q.24 0 .24.24v.8q0 .24-.24.24h-2.48v6.64q0 .24-.24.24zm9.245-1.28q.48 0 .752-.272.288-.288.288-.768v-.8q0-.48-.288-.752-.273-.288-.752-.288h-2.8v2.88zM64.51 17q-.24 0-.24-.24V9.08q0-.24.24-.24h.88q.24 0 .24.24v2.48h2.8q2.4 0 2.4 2.32v.8q0 2.32-2.4 2.32zm14.72-3.68h-2v3.44q0 .24-.24.24h-.88q-.24 0-.24-.24V9.08q0-.24.24-.24h.88q.24 0 .24.24v2.96h2l1.6-2.96a.4.4 0 0 1 .144-.176q.08-.064.256-.064h.96q.271 0 .16.24l-2 3.6 2.24 4.08q.111.24-.16.24h-.96a.5.5 0 0 1-.256-.048.6.6 0 0 1-.144-.192zm10.243-2.16q0-.544-.336-.864-.321-.336-.864-.336h-2q-.544 0-.88.336-.32.32-.32.864v3.52q0 .544.32.88.336.32.88.32h2q.543 0 .864-.32.336-.336.336-.88zm1.36 3.52q0 1.2-.656 1.84-.64.64-1.904.64h-2q-1.264 0-1.92-.64-.64-.64-.64-1.84v-3.52q0-1.2.64-1.84.656-.64 1.92-.64h2q1.263 0 1.904.64.656.64.656 1.84zm6.84.56 2.879-6.16a.4.4 0 0 1 .144-.176q.096-.064.336-.064h.96q.24 0 .24.24v7.68q0 .24-.24.24h-.88q-.24 0-.24-.24v-5.28h-.08l-2.48 5.28a.5.5 0 0 1-.16.192q-.08.048-.32.048h-.4q-.24 0-.336-.048a.6.6 0 0 1-.144-.192l-2.48-5.28h-.08v5.28q0 .24-.24.24h-.88q-.24 0-.24-.24V9.08q0-.24.24-.24h.96q.24 0 .32.064.096.047.16.176l2.88 6.16zm11.565 0 2.88-6.16a.4.4 0 0 1 .144-.176q.096-.064.336-.064h.96q.24 0 .24.24v7.68q0 .24-.24.24h-.88q-.24 0-.24-.24v-5.28h-.08l-2.48 5.28a.5.5 0 0 1-.16.192q-.08.048-.32.048h-.4q-.24 0-.336-.048a.55.55 0 0 1-.144-.192l-2.48-5.28h-.08v5.28q0 .24-.24.24h-.88q-.24 0-.24-.24V9.08q0-.24.24-.24h.96q.24 0 .32.064.096.047.16.176l2.88 6.16zm12.445-3.04v-1.04q0-.544-.336-.864-.32-.336-.864-.336h-1.92q-.544 0-.88.336-.32.32-.32.864v1.04zm-4.32 1.28v1.2q0 .544.32.88.337.32.88.32h1.92q.544 0 .864-.32.336-.336.336-.88v-.08q0-.24.24-.24h.88q.24 0 .24.24v.08q0 1.2-.656 1.84-.64.64-1.904.64h-1.92q-1.263 0-1.92-.64-.64-.64-.64-1.84v-3.52q0-1.2.64-1.84.657-.64 1.92-.64h1.92q1.265 0 1.904.64.657.64.656 1.84v2.08q0 .24-.24.24zm12.282 2.24q.543 0 .864-.32.336-.336.336-.88v-3.36q0-.544-.336-.864-.321-.336-.864-.336h-1.36q-.72 0-1.2.48t-.48 1.2v4.08zm-3.04 1.28v2.8q0 .24-.24.24h-.88q-.24 0-.24-.24V9.08q0-.24.24-.24h.88q.24 0 .24.24v.56h.08q.128-.271.368-.48.207-.176.544-.32.335-.16.848-.16h1.2q1.263 0 1.904.64.656.64.656 1.84v3.36q0 1.2-.656 1.84-.64.64-1.904.64zm8.999-5.2q0 .544.32.88.336.32.88.32h2.72V9.08q0-.24.24-.24h.88q.24 0 .24.24v7.68q0 .24-.24.24h-.88q-.24 0-.24-.24v-2.48h-2.72q-1.264 0-1.92-.64-.64-.64-.64-1.84V9.08q0-.24.24-.24h.88q.24 0 .24.24zm13.167.4v-1.04q0-.544-.336-.864-.32-.336-.864-.336h-1.92q-.544 0-.88.336-.32.32-.32.864v1.04zm-4.32 1.28v1.2q0 .544.32.88.336.32.88.32h1.92q.545 0 .864-.32.336-.336.336-.88v-.08q0-.24.24-.24h.88q.24 0 .24.24v.08q0 1.2-.656 1.84-.64.64-1.904.64h-1.92q-1.264 0-1.92-.64-.64-.64-.64-1.84v-3.52q0-1.2.64-1.84.656-.64 1.92-.64h1.92q1.264 0 1.904.64.656.64.656 1.84v2.08q0 .24-.24.24zm9.081 1.2q0 .544.32.88.336.32.88.32h1.84q.544 0 .864-.32.336-.336.336-.88v-.4q0-.24.24-.24h.88q.24 0 .24.24v.4q0 1.2-.656 1.84-.64.64-1.904.64h-1.84q-1.264 0-1.92-.64-.64-.64-.64-1.84v-3.52q0-1.2.64-1.84.656-.64 1.92-.64h1.84q1.264 0 1.904.64.656.64.656 1.84v.4q0 .24-.24.24h-.88q-.24 0-.24-.24v-.4q0-.544-.336-.864-.32-.336-.864-.336h-1.84q-.544 0-.88.336-.32.32-.32.864zm11.007-1.36h-2v3.44q0 .24-.24.24h-.88q-.24 0-.24-.24V9.08q0-.24.24-.24h.88q.24 0 .24.24v2.96h2l1.6-2.96a.4.4 0 0 1 .144-.176q.08-.064.256-.064h.96q.272 0 .16.24l-2 3.6 2.24 4.08q.112.24-.16.24h-.96a.5.5 0 0 1-.256-.048.6.6 0 0 1-.144-.192zm10.243-2.16q0-.544-.336-.864-.32-.336-.864-.336h-2q-.544 0-.88.336-.32.32-.32.864v3.52q0 .544.32.88.336.32.88.32h2q.544 0 .864-.32.336-.336.336-.88zm1.36 3.52q0 1.2-.656 1.84-.64.64-1.904.64h-2q-1.264 0-1.92-.64-.64-.64-.64-1.84v-3.52q0-1.2.64-1.84.656-.64 1.92-.64h2q1.264 0 1.904.64.656.64.656 1.84zm7.72-2.48v-1.04q0-.544-.336-.864-.321-.336-.864-.336h-1.92q-.544 0-.88.336-.32.32-.32.864v1.04zm-4.32 1.28v1.2q0 .544.32.88.336.32.88.32h1.92q.543 0 .864-.32.336-.336.336-.88v-.08q0-.24.24-.24h.88q.24 0 .24.24v.08q0 1.2-.656 1.84-.64.64-1.904.64h-1.92q-1.264 0-1.92-.64-.64-.64-.64-1.84v-3.52q0-1.2.64-1.84.656-.64 1.92-.64h1.92q1.263 0 1.904.64.656.64.656 1.84v2.08q0 .24-.24.24zM196.107 17q-.24 0-.24-.24v-6.64h-4.08v6.64q0 .24-.24.24h-.88q-.24 0-.24-.24V9.08q0-.24.24-.24h6.32q.24 0 .24.24v7.68q0 .24-.24.24zm7.879-1.28q.545 0 .864-.32.336-.336.336-.88v-3.36q0-.544-.336-.864-.32-.336-.864-.336h-1.36q-.72 0-1.2.48t-.48 1.2v4.08zm-3.04 1.28v2.8q0 .24-.24.24h-.88q-.24 0-.24-.24V9.08q0-.24.24-.24h.88q.24 0 .24.24v.56h.08q.128-.271.368-.48a2.2 2.2 0 0 1 .544-.32q.336-.16.848-.16h1.2q1.265 0 1.904.64.656.64.656 1.84v3.36q0 1.2-.656 1.84-.64.64-1.904.64zm13.32-4.8v-1.04q0-.544-.336-.864-.321-.336-.864-.336h-1.92q-.544 0-.88.336-.32.32-.32.864v1.04zm-4.32 1.28v1.2q0 .544.32.88.336.32.88.32h1.92q.543 0 .864-.32.336-.336.336-.88v-.08q0-.24.24-.24h.88q.24 0 .24.24v.08q0 1.2-.656 1.84-.64.64-1.904.64h-1.92q-1.264 0-1.92-.64-.64-.64-.64-1.84v-3.52q0-1.2.64-1.84.656-.64 1.92-.64h1.92q1.263 0 1.904.64.656.64.656 1.84v2.08q0 .24-.24.24zm12.681-3.36h-2.64l-1.12 5.6h3.76zm1.36 5.6h.8q.24 0 .24.24v2.56q0 .24-.24.24h-.88q-.24 0-.24-.24V17h-5.76v1.52q0 .24-.24.24h-.88q-.24 0-.24-.24v-2.56q0-.24.24-.24h.72l1.36-6.64q.048-.24.4-.24h4.48q.24 0 .24.24zm4.273-.88q-.24 1.2-.816 1.76t-1.664.56h-.24q-.24 0-.24-.24v-.8q0-.24.24-.24h.24q.416 0 .704-.272.304-.271.416-.768l1.2-5.76q.048-.24.4-.24h4.48q.24 0 .24.24v7.68q0 .24-.24.24h-.88q-.24 0-.24-.24v-6.64h-2.64zm12.923-3.68q0-.544-.336-.864-.32-.336-.864-.336h-2q-.544 0-.88.336-.32.32-.32.864v3.52q0 .544.32.88.336.32.88.32h2q.545 0 .864-.32.336-.336.336-.88zm1.36 3.52q0 1.2-.656 1.84-.64.64-1.904.64h-2q-1.264 0-1.92-.64-.64-.64-.64-1.84v-3.52q0-1.2.64-1.84.656-.64 1.92-.64h2q1.264 0 1.904.64.656.64.656 1.84zm9.031-1.36h-1.52v3.44q0 .24-.24.24h-.88q-.24 0-.24-.24v-3.44h-1.52l-1.84 3.44a.55.55 0 0 1-.144.192.5.5 0 0 1-.256.048h-.96q-.128 0-.176-.048-.047-.064.016-.192l2.24-4.08-2-3.6q-.063-.128-.016-.176.048-.064.176-.064h.96q.177 0 .256.064.081.047.144.176l1.6 2.96h1.52V9.08q0-.24.24-.24h.88q.24 0 .24.24v2.96h1.52l1.6-2.96a.4.4 0 0 1 .144-.176q.08-.064.256-.064h.96q.273 0 .16.24l-2 3.6 2.24 4.08q.113.24-.16.24h-.96a.5.5 0 0 1-.256-.048.6.6 0 0 1-.144-.192zm10.16-1.12v-1.04q0-.544-.336-.864-.32-.336-.864-.336h-1.92q-.544 0-.88.336-.32.32-.32.864v1.04zm-4.32 1.28v1.2q0 .544.32.88.336.32.88.32h1.92q.545 0 .864-.32.336-.336.336-.88v-.08q0-.24.24-.24h.88q.24 0 .24.24v.08q0 1.2-.656 1.84-.64.64-1.904.64h-1.92q-1.263 0-1.92-.64-.64-.64-.64-1.84v-3.52q0-1.2.64-1.84.657-.64 1.92-.64h1.92q1.265 0 1.904.64.656.64.656 1.84v2.08q0 .24-.24.24zm9.242 0v3.28q0 .24-.24.24h-.88q-.24 0-.24-.24V9.08q0-.24.24-.24h.88q.24 0 .24.24v3.2h4.08v-3.2q0-.24.24-.24h.88q.24 0 .24.24v7.68q0 .24-.24.24h-.88q-.24 0-.24-.24v-3.28zm14.519-4.64q.24 0 .24.24v7.68q0 .24-.24.24h-.88q-.24 0-.24-.24v-5.84h-.08l-3.84 5.84a.8.8 0 0 1-.16.192q-.08.048-.32.048h-.96q-.24 0-.24-.24V9.08q0-.24.24-.24h.88q.24 0 .24.24v5.84h.08l3.84-5.84a.5.5 0 0 1 .16-.176q.08-.064.32-.064zm8.116 3.36v-1.04q0-.544-.336-.864-.321-.336-.864-.336h-1.92q-.544 0-.88.336-.32.32-.32.864v1.04zm-4.32 1.28v1.2q0 .544.32.88.336.32.88.32h1.92q.543 0 .864-.32.336-.336.336-.88v-.08q0-.24.24-.24h.88q.24 0 .24.24v.08q0 1.2-.656 1.84-.64.64-1.904.64h-1.92q-1.265 0-1.92-.64-.64-.64-.64-1.84v-3.52q0-1.2.64-1.84.655-.64 1.92-.64h1.92q1.263 0 1.904.64.656.64.656 1.84v2.08q0 .24-.24.24z"/><path fill="#ff3e79" fill-rule="evenodd" d="M301.294 15.236a1 1 0 0 0 0 1.407l.046.046a1 1 0 0 0 1.422 0l3.944-3.986a1 1 0 0 0 0-1.406l-3.944-3.986a1 1 0 0 0-1.422 0l-.046.047a1 1 0 0 0 0 1.406L304.496 12z" clip-rule="evenodd"/></svg>