<svg xmlns="http://www.w3.org/2000/svg" width="119" height="32" fill="none" viewBox="0 0 119 32"><rect width="119" height="32" fill="#ff3e79" rx="16"/><path fill="#fff" d="M20.003 14.24q0 .432-.168.696-.168.252-.372.396-.24.168-.54.228v.12q.336.072.6.264.228.168.408.48.192.3.192.816v.78q0 2.1-2.1 2.1h-3.3q-2.1 0-2.1-2.1v-.6q0-.3.3-.3h1.32q.3 0 .3.3v.36q0 .66.66.66h2.34q.66 0 .66-.66v-.54q0-.66-.66-.66h-1.74q-.3 0-.3-.3V15.2q0-.3.3-.3h1.62q.66 0 .66-.66v-.42q0-.66-.66-.66h-2.1q-.66 0-.66.66v.36q0 .3-.3.3h-1.32q-.3 0-.3-.3v-.6q0-2.1 2.1-2.1h3.06q2.1 0 2.1 2.1zm3.49 4.02-.54 1.44a.6.6 0 0 1-.156.216q-.084.084-.264.084h-1.5q-.3 0-.18-.3l2.94-7.8q.12-.3.48-.3h1.74q.18 0 .264.084a.6.6 0 0 1 .156.216l2.94 7.8q.12.3-.18.3h-1.5q-.18 0-.276-.084a.7.7 0 0 1-.144-.216l-.54-1.44zm2.64-1.68-.96-2.58h-.12l-.96 2.58zm6.13-1.8h1.62l1.56-2.88a.7.7 0 0 1 .18-.216.5.5 0 0 1 .3-.084h1.5q.132 0 .192.084t-.012.216l-2.04 3.66 2.28 4.14q.072.132.012.216t-.192.084h-1.5a.5.5 0 0 1-.3-.084.7.7 0 0 1-.18-.216l-1.74-3.24h-1.68v3.24q0 .3-.3.3h-1.32q-.3 0-.3-.3v-7.8q0-.3.3-.3h1.32q.3 0 .3.3zm8.39 3.48-.54 1.44a.6.6 0 0 1-.155.216q-.084.084-.264.084h-1.5q-.3 0-.18-.3l2.94-7.8q.12-.3.48-.3h1.74q.18 0 .264.084a.6.6 0 0 1 .156.216l2.94 7.8q.12.3-.18.3h-1.5q-.18 0-.276-.084a.7.7 0 0 1-.144-.216l-.54-1.44zm2.64-1.68-.96-2.58h-.12l-.96 2.58zm11.23-2.34q0 .432-.167.696-.168.252-.372.396-.24.168-.54.228v.12q.336.072.6.264.228.168.408.48.192.3.192.816v.78q0 2.1-2.1 2.1h-3.3q-2.1 0-2.1-2.1v-.6q0-.3.3-.3h1.32q.3 0 .3.3v.36q0 .66.66.66h2.34q.66 0 .66-.66v-.54q0-.66-.66-.66h-1.74q-.3 0-.3-.3V15.2q0-.3.3-.3h1.62q.66 0 .66-.66v-.42q0-.66-.66-.66h-2.1q-.66 0-.66.66v.36q0 .3-.3.3h-1.32q-.3 0-.3-.3v-.6q0-2.1 2.1-2.1h3.06q2.1 0 2.1 2.1zm3.491 4.02-.54 1.44a.6.6 0 0 1-.156.216q-.084.084-.264.084h-1.5q-.3 0-.18-.3l2.94-7.8q.12-.3.48-.3h1.74q.18 0 .264.084a.6.6 0 0 1 .156.216l2.94 7.8q.12.3-.18.3h-1.5q-.18 0-.276-.084a.7.7 0 0 1-.144-.216l-.54-1.44zm2.64-1.68-.96-2.58h-.12l-.96 2.58zm6.795 3.12q0 .3-.3.3h-1.32q-.3 0-.3-.3v-6.42h-2.4q-.3 0-.3-.3V11.9q0-.3.3-.3h6.72q.3 0 .3.3v1.08q0 .3-.3.3h-2.4zm8.728-5.58q2.1 0 2.1 2.1v1.68q0 2.1-2.1 2.1h-4.8q-.3 0-.3-.3v-7.8q0-.3.3-.3h1.32q.3 0 .3.3v2.22zm-.48 4.2q.66 0 .66-.66v-1.2q0-.66-.66-.66h-2.7v2.52z"/><rect width="24" height="24" x="87" y="4" fill="#ff3e79" rx="12"/><path fill="#fff" fill-rule="evenodd" d="m99.8 16-3.008-2.77a1 1 0 0 1-.007-1.466l.135-.127a1 1 0 0 1 1.364-.004l4.654 4.31a.08.08 0 0 1 0 .114l-4.591 4.252a1.092 1.092 0 1 1-1.482-1.605z" clip-rule="evenodd"/></svg>