<svg xmlns="http://www.w3.org/2000/svg" width="40" height="40" fill="none" viewBox="0 0 40 40"><rect width="40" height="40" fill="#ff3e79" rx="20"/><path fill="#fff" d="m18.258 23.458.409-.409-1.717-1.717-.409.41-.204-.205c-.327-.368-.654-.573-.981-.532-.245 0-.45.164-.613.409-.246.409-.123.859-.082 1.145 0 .082.04.122.04.204 0 .123 0 .286-.285.327-.41.123-.94.246-1.472.532-.736.409-1.226.777-1.513 1.145-1.512 1.962-1.43 3.639-1.43 3.72q0 .184.122.246l1.104 1.144q.123.123.245.123h.123c.409 0 1.88-.082 3.597-1.431.368-.286.736-.777 1.145-1.513.286-.49.45-1.022.531-1.472.082-.286.205-.286.327-.286.041 0 .123.041.205.041.163.04.327.082.531.082s.409-.041.613-.164c.245-.163.409-.368.45-.613.04-.327-.123-.654-.49-.94zM26.884 14.878l1.135-.552c.042-.043.126-.085.168-.127l1.723-2.337c.126-.17.126-.425-.042-.553l-1.177-1.19c-.126-.127-.378-.17-.546-.042l-2.312 1.742a.6.6 0 0 0-.126.17l-.546 1.147L21 17.216 22.765 19z"/><path fill="#fff" d="M27.853 23.045c-.99-1.041-2.414-1.416-3.759-1.041l-6.449-6.83c.08-.375.119-.709.119-1.083a4.18 4.18 0 0 0-1.147-2.874 3.7 3.7 0 0 0-3.996-1 .54.54 0 0 0-.238.333q0 .188.119.375l1.939 2.041c.435.458.435 1.25 0 1.708a1.13 1.13 0 0 1-1.623 0l-1.938-2.041c-.119-.083-.238-.125-.396-.083-.118 0-.237.124-.277.25-.474 1.457-.118 3.081.91 4.164.712.792 1.741 1.208 2.77 1.208.316 0 .672-.042.989-.125l6.488 6.83a4.34 4.34 0 0 0 .99 3.957A3.67 3.67 0 0 0 25.083 30c.434 0 .83-.083 1.265-.208a.5.5 0 0 0 .277-.292.35.35 0 0 0-.119-.375l-1.938-2.04a1.33 1.33 0 0 1-.356-.875q0-.5.356-.875.356-.374.83-.374.475 0 .832.374l1.938 2.041a.6.6 0 0 0 .356.125c.119-.042.238-.125.277-.25A5 5 0 0 0 29 25.92c0-1.083-.396-2.125-1.147-2.874"/></svg>